<?xml version="1.0" standalone="no"?>
<!DOCTYPE svg PUBLIC "-//W3C//DTD SVG 20010904//EN"
 "http://www.w3.org/TR/2001/REC-SVG-20010904/DTD/svg10.dtd">
<svg version="1.0" xmlns="http://www.w3.org/2000/svg"
 width="700.000000pt" height="700.000000pt" viewBox="0 0 700.000000 700.000000"
 preserveAspectRatio="xMidYMid meet">
<metadata>
Created by potrace 1.11, written by Peter Selinger 2001-2013
</metadata>
<g transform="translate(0.000000,700.000000) scale(0.100000,-0.100000)"
fill="#000000" stroke="none">
<path d="M2040 4695 l-275 -275 275 -275 275 -275 -1158 0 -1157 0 0 -370 0
-370 1157 0 1158 0 -275 -275 -275 -275 278 -278 277 -277 737 738 738 737
-735 735 c-404 404 -737 735 -740 735 -3 0 -129 -124 -280 -275z"/>
<path d="M5160 4420 l0 -550 -552 -2 -553 -3 0 -365 0 -365 553 -3 552 -2 0
-550 0 -550 365 0 365 0 0 550 0 550 555 0 555 0 0 370 0 370 -555 0 -555 0 0
550 0 550 -365 0 -365 0 0 -550z"/>
</g>
</svg>
