<?xml version="1.0" standalone="no"?>
<!DOCTYPE svg PUBLIC "-//W3C//DTD SVG 20010904//EN"
 "http://www.w3.org/TR/2001/REC-SVG-20010904/DTD/svg10.dtd">
<svg version="1.0" xmlns="http://www.w3.org/2000/svg"
 width="700.000000pt" height="700.000000pt" viewBox="0 0 700.000000 700.000000"
 preserveAspectRatio="xMidYMid meet">
<metadata>
Created by potrace 1.11, written by Peter Selinger 2001-2013
</metadata>
<g transform="translate(0.000000,700.000000) scale(0.100000,-0.100000)"
fill="#000000" stroke="none">
<path d="M3379 6887 c-236 -227 -502 -484 -557 -536 -54 -51 -207 -198 -409
-393 -50 -49 -97 -95 -103 -103 -9 -10 57 -13 382 -13 216 0 398 -1 405 -1 9
-1 12 -67 13 -261 l0 -260 -27 -6 c-259 -57 -491 -153 -673 -277 -360 -248
-607 -779 -556 -1199 25 -213 153 -469 318 -638 105 -107 138 -135 274 -226
169 -113 386 -217 674 -325 58 -22 114 -44 125 -48 11 -5 74 -28 140 -51 453
-159 623 -258 727 -424 55 -90 78 -213 56 -309 -23 -105 -102 -212 -208 -282
-268 -178 -678 -174 -1025 10 -151 80 -347 226 -456 338 -20 20 -39 37 -42 37
-7 0 -127 -56 -387 -182 -96 -47 -214 -104 -262 -127 -49 -23 -88 -47 -88 -53
0 -17 87 -156 159 -253 73 -97 205 -236 286 -300 28 -22 52 -43 55 -46 3 -3
39 -29 80 -56 153 -103 335 -188 530 -249 61 -19 258 -64 282 -64 18 0 19 -8
18 -122 -1 -68 -1 -201 -1 -296 l1 -172 388 2 387 3 0 303 0 303 40 10 c213
57 445 163 605 277 52 37 143 114 201 172 165 162 269 331 322 521 40 143 47
193 47 351 1 287 -58 485 -201 679 -65 87 -228 255 -289 299 -213 150 -394
235 -850 400 -680 245 -910 398 -975 645 -41 160 0 298 130 431 98 101 206
161 353 195 64 15 238 20 287 9 22 -5 56 -12 75 -15 52 -9 169 -44 220 -67
129 -57 194 -101 285 -192 61 -61 90 -98 140 -180 9 -14 21 -9 92 41 45 32
184 128 308 213 125 85 233 161 240 168 7 6 19 12 25 12 21 0 -33 63 -165 196
-123 123 -244 225 -345 290 -25 16 -47 31 -50 34 -15 16 -171 96 -242 125 -35
14 -72 30 -83 35 -11 4 -54 18 -95 30 l-75 22 0 264 0 264 35 1 c19 0 200 1
403 1 202 0 367 2 367 5 0 5 -34 38 -331 323 -105 102 -218 210 -249 240 -82
79 -454 437 -527 507 -33 32 -67 64 -75 70 -10 9 -38 -12 -129 -100z"/>
</g>
</svg>
