<?xml version="1.0" standalone="no"?>
<!DOCTYPE svg PUBLIC "-//W3C//DTD SVG 20010904//EN"
 "http://www.w3.org/TR/2001/REC-SVG-20010904/DTD/svg10.dtd">
<svg version="1.0" xmlns="http://www.w3.org/2000/svg"
 width="700.000000pt" height="700.000000pt" viewBox="0 0 700.000000 700.000000"
 preserveAspectRatio="xMidYMid meet">
<metadata>
Created by potrace 1.11, written by Peter Selinger 2001-2013
</metadata>
<g transform="translate(0.000000,700.000000) scale(0.100000,-0.100000)"
fill="#000000" stroke="none">
<path d="M3356 6842 c-84 -86 -180 -185 -212 -218 -33 -34 -183 -189 -335
-345 -152 -156 -316 -324 -363 -374 l-87 -90 371 -3 370 -2 1 -28 c2 -98 0
-544 -3 -547 -1 -1 -26 -5 -55 -9 -110 -13 -342 -57 -428 -81 -49 -14 -97 -27
-105 -29 -13 -4 -81 -27 -165 -59 -56 -20 -195 -96 -272 -149 -300 -201 -528
-632 -517 -978 4 -137 21 -212 74 -326 84 -181 248 -348 495 -501 209 -131
593 -259 920 -308 17 -3 75 -12 130 -20 55 -8 111 -17 125 -20 24 -5 120 -22
168 -30 12 -2 30 -6 40 -9 9 -3 29 -8 45 -11 68 -13 88 -18 177 -40 522 -133
820 -327 834 -547 19 -285 -259 -510 -674 -546 -135 -11 -359 -6 -510 13 -71
9 -116 15 -136 19 -12 2 -39 7 -60 10 -142 22 -364 97 -451 152 -172 109 -264
283 -275 519 l-3 60 -515 -1 c-283 -1 -521 -2 -529 -3 -18 -1 -9 -214 13 -318
91 -426 411 -762 946 -996 181 -79 451 -136 663 -141 l67 -1 1 -60 c0 -33 1
-232 1 -443 l0 -382 408 0 408 0 -2 440 c-1 384 1 441 14 444 8 3 38 7 65 11
94 11 290 46 375 66 47 11 92 22 100 24 112 24 333 101 450 157 210 101 357
218 457 365 193 282 278 595 238 875 -31 213 -117 375 -287 541 -208 202 -508
345 -963 461 -122 31 -414 81 -590 102 -165 20 -514 89 -635 126 -269 82 -427
184 -486 313 -36 78 -35 202 1 306 27 76 74 143 138 196 24 19 109 59 162 76
51 16 130 31 222 42 63 7 454 8 503 1 92 -14 119 -19 175 -32 224 -55 389
-176 474 -347 24 -48 47 -114 54 -153 l13 -69 542 -1 542 -2 0 22 c0 13 -7 65
-16 117 -36 211 -132 408 -278 573 -52 59 -82 90 -160 161 -69 63 -219 165
-336 227 -71 39 -244 110 -300 124 -8 2 -42 11 -75 19 -53 13 -127 26 -235 40
-19 2 -63 5 -97 6 -57 2 -63 4 -64 23 -1 34 -1 509 0 533 l1 23 370 2 371 3
-98 102 c-54 55 -208 214 -343 353 -135 138 -289 298 -343 353 -55 56 -159
164 -233 239 l-134 137 -154 -157z"/>
</g>
</svg>
