<?xml version="1.0" standalone="no"?>
<!DOCTYPE svg PUBLIC "-//W3C//DTD SVG 20010904//EN"
 "http://www.w3.org/TR/2001/REC-SVG-20010904/DTD/svg10.dtd">
<svg version="1.0" xmlns="http://www.w3.org/2000/svg"
 width="700.000000pt" height="700.000000pt" viewBox="0 0 700.000000 700.000000"
 preserveAspectRatio="xMidYMid meet">
<metadata>
Created by potrace 1.11, written by Peter Selinger 2001-2013
</metadata>
<g transform="translate(0.000000,700.000000) scale(0.100000,-0.100000)"
fill="#000000" stroke="none">
<path d="M5693 4373 c-4 -2 -7 -149 -6 -328 l1 -325 -106 -1 c-59 0 -207 0
-329 0 l-223 1 0 -219 0 -220 283 0 c155 0 303 -1 328 -1 l47 0 -2 -324 c-1
-282 1 -325 14 -328 8 -2 107 -4 220 -3 l205 0 0 322 c0 177 3 324 6 327 3 3
150 6 327 6 l322 1 1 154 c0 85 0 175 0 200 0 95 41 84 -322 84 -177 0 -324 3
-328 6 -3 4 -6 151 -6 328 l0 322 -212 0 c-117 0 -216 -1 -220 -2z"/>
<path d="M3623 4217 c-83 -84 -153 -158 -155 -165 -2 -6 69 -84 157 -172 l160
-160 -688 0 c-378 0 -687 -3 -688 -7 -3 -26 -4 -401 -1 -415 4 -15 52 -17 646
-17 352 0 661 0 685 -1 l45 0 -160 -160 c-87 -88 -161 -162 -163 -165 -3 -4
314 -325 322 -325 3 0 201 196 441 435 l436 435 -435 435 c-239 239 -438 435
-442 435 -5 -1 -76 -69 -160 -153z"/>
<path d="M220 3500 l0 -220 875 1 875 0 0 219 0 219 -875 0 -875 0 0 -219z"/>
</g>
</svg>
