<?xml version="1.0" encoding="UTF-8"?>
<svg width="640px" height="480px" viewBox="0 0 640 480" version="1.1" xmlns="http://www.w3.org/2000/svg" xmlns:xlink="http://www.w3.org/1999/xlink">
    <title>wordmark_d2i_white copy 3</title>
    <g id="wordmark_d2i_white-copy-3" stroke="none" stroke-width="1" fill="none" fill-rule="evenodd">
        <path d="M560,160 L559.999,220 L620,220 L620,260 L559.999,260 L560,320 L520,320 L519.999,260 L460,260 L460,220 L519.999,220 L520,160 L560,160 Z" id="Plus" fill="#FFFFFF"></path>
        <path d="M346,160 L426,240 L346,320 L316,290 L346,260 L346,259.999 L220,260 L220,220 L345.999,219.999 L316,190 L346,160 Z" id="Arrow" fill="#FFFFFF"></path>
        <polygon id="Minus" fill="#FFFFFF" points="20 220 20 260 180 260 180 220"></polygon>
        <path d="M46.896,122 C70.92,122 87.976,107.128 87.976,86.224 C87.976,65.32 70.92,50.552 46.896,50.552 L21.312,50.552 L21.312,122 L46.896,122 Z M48.872,108.064 L36.6,108.064 L36.6,64.488 L48.872,64.488 C62.496,64.488 72.168,73.536 72.168,86.224 C72.168,99.016 62.496,108.064 48.872,108.064 Z M154.848,122 L154.848,108.168 L115.224,108.168 L115.224,92.464 L151.104,92.464 L151.104,78.632 L115.224,78.632 L115.224,64.384 L154.848,64.384 L154.848,50.552 L99.832,50.552 L99.832,122 L154.848,122 Z M204.664,122 C218.288,122 228.064,114.096 228.064,102.656 C228.064,94.752 223.28,88.096 214.96,84.352 C221.304,81.024 224.944,75.72 224.944,68.44 C224.944,58.04 216.104,50.552 203.312,50.552 L167.12,50.552 L167.12,122 L204.664,122 Z M199.464,79.36 L182.408,79.36 L182.408,63.656 L199.464,63.656 C205.184,63.656 209.24,66.984 209.24,71.456 C209.24,76.032 205.184,79.36 199.464,79.36 Z M201.856,108.896 L182.408,108.896 L182.408,91.424 L201.856,91.424 C207.992,91.424 212.36,95.064 212.36,100.16 C212.36,105.256 207.992,108.896 201.856,108.896 Z M273.096,122 L273.096,64.384 L295.352,64.384 L295.352,50.552 L235.448,50.552 L235.448,64.384 L257.704,64.384 L257.704,122 L273.096,122 Z M337.264,123.248 C357.96,123.248 375.224,106.296 375.224,86.224 C375.224,66.152 357.96,49.304 337.264,49.304 C316.776,49.304 299.304,66.152 299.304,86.224 C299.304,106.296 316.776,123.248 337.264,123.248 Z M337.264,109.312 C325.304,109.312 315.112,98.704 315.112,86.224 C315.112,73.848 325.304,63.24 337.264,63.24 C349.328,63.24 359.52,73.848 359.52,86.224 C359.52,98.704 349.328,109.312 337.264,109.312 Z M401.848,122 L401.848,98.808 L413.184,98.808 L429.512,122 L446.984,122 L429.408,97.04 C439.184,93.608 445.632,85.288 445.632,74.68 C445.632,60.536 434.192,50.552 418.696,50.552 L386.56,50.552 L386.56,122 L401.848,122 Z M417.032,84.768 L401.848,84.768 L401.848,64.592 L417.032,64.592 C424.624,64.592 429.824,68.544 429.824,74.68 C429.824,80.816 424.624,84.768 417.032,84.768 Z M519.992,122 L519.992,64.384 L542.248,64.384 L542.248,50.552 L482.344,50.552 L482.344,64.384 L504.6,64.384 L504.6,122 L519.992,122 Z M584.16,123.248 C604.856,123.248 622.12,106.296 622.12,86.224 C622.12,66.152 604.856,49.304 584.16,49.304 C563.672,49.304 546.2,66.152 546.2,86.224 C546.2,106.296 563.672,123.248 584.16,123.248 Z M584.16,109.312 C572.2,109.312 562.008,98.704 562.008,86.224 C562.008,73.848 572.2,63.24 584.16,63.24 C596.224,63.24 606.416,73.848 606.416,86.224 C606.416,98.704 596.224,109.312 584.16,109.312 Z" id="DEBTORTO-Outlines" fill="#FFFFFF" fill-rule="nonzero"></path>
        <path d="M36.96,439 L36.96,367.552 L21.568,367.552 L21.568,439 L36.96,439 Z M80.32,439 L80.32,392.824 L114.744,439 L130.136,439 L130.136,367.552 L114.744,367.552 L114.744,413.728 L80.32,367.552 L65.032,367.552 L65.032,439 L80.32,439 Z M195.164,439 L224.284,367.552 L207.124,367.552 L186.636,417.888 L166.148,367.552 L148.884,367.552 L178.004,439 L195.164,439 Z M297.424,439 L297.424,425.168 L257.8,425.168 L257.8,409.464 L293.68,409.464 L293.68,395.632 L257.8,395.632 L257.8,381.384 L297.424,381.384 L297.424,367.552 L242.408,367.552 L242.408,439 L297.424,439 Z M349.312,440.248 C366.784,440.248 377.08,431.2 377.08,417.576 C377.08,404.368 366.888,399.792 351.496,396.36 C340.472,393.864 336.208,392.2 336.208,387 C336.208,382.736 340.16,379.304 346.712,379.304 C353.576,379.304 360.752,382.112 367.096,387.208 L375.104,376.184 C367.824,369.944 358.776,366.304 347.128,366.304 C331.528,366.304 320.712,375.352 320.712,388.56 C320.712,402.392 331.424,406.656 346.504,410.088 C357.424,412.584 361.584,414.144 361.584,419.24 C361.584,423.712 357.632,427.248 349.936,427.248 C340.888,427.248 333.192,423.712 326.432,417.888 L317.592,428.392 C325.912,436.088 336.936,440.248 349.312,440.248 Z M431.208,439 L431.208,381.384 L453.464,381.384 L453.464,367.552 L393.56,367.552 L393.56,381.384 L415.816,381.384 L415.816,439 L431.208,439 Z M504.576,440.248 C525.272,440.248 542.536,423.296 542.536,403.224 C542.536,383.152 525.272,366.304 504.576,366.304 C484.088,366.304 466.616,383.152 466.616,403.224 C466.616,423.296 484.088,440.248 504.576,440.248 Z M504.576,426.312 C492.616,426.312 482.424,415.704 482.424,403.224 C482.424,390.848 492.616,380.24 504.576,380.24 C516.64,380.24 526.832,390.848 526.832,403.224 C526.832,415.704 516.64,426.312 504.576,426.312 Z M577.36,439 L577.36,415.808 L588.696,415.808 L605.024,439 L622.496,439 L604.92,414.04 C614.696,410.608 621.144,402.288 621.144,391.68 C621.144,377.536 609.704,367.552 594.208,367.552 L562.072,367.552 L562.072,439 L577.36,439 Z M592.544,401.768 L577.36,401.768 L577.36,381.592 L592.544,381.592 C600.136,381.592 605.336,385.544 605.336,391.68 C605.336,397.816 600.136,401.768 592.544,401.768 Z" id="INVESTOR-Outlines" fill="#FFFFFF" fill-rule="nonzero"></path>
    </g>
</svg>